<svg xmlns="http://www.w3.org/2000/svg" width="256" height="256" viewBox="0 0 256 256" fill="none">
  <rect width="256" height="256" fill="#E35205"/>
  <path d="M39 215L57 66C60 49 74 36 92 36H164C182 36 196 49 199 66L217 215H194L180 72C179 66 174 62 168 62H88C82 62 77 66 76 72L62 215H39Z" fill="white"/>
  <path d="M97 49H160V74H97V49Z" fill="white"/>
  <path d="M126 73H134V103H126V73Z" fill="white"/>
  <path d="M130 104C146 104 159 117 159 133C159 149 146 162 130 162C114 162 101 149 101 133C101 127 106 122 112 122C118 122 123 127 123 133C123 137 126 140 130 140C134 140 137 137 137 133C137 129 134 126 130 126C126 126 123 123 123 119C123 115 126 112 130 112Z" fill="white"/>
</svg>
